<?xml version="1.0" standalone="no"?>
<!DOCTYPE svg PUBLIC "-//W3C//DTD SVG 20010904//EN"
 "http://www.w3.org/TR/2001/REC-SVG-20010904/DTD/svg10.dtd">
<svg version="1.0" xmlns="http://www.w3.org/2000/svg"
 width="50.000000pt" height="50.000000pt" viewBox="0 0 50.000000 50.000000"
 preserveAspectRatio="xMidYMid meet">

<g transform="translate(0.000000,50.000000) scale(0.100000,-0.100000)"
fill="#000000" stroke="none">
<path d="M10 255 l0 -245 75 0 c68 0 75 2 75 20 0 18 -7 20 -55 20 l-55 0 0
205 0 205 110 0 110 0 0 -190 0 -190 25 0 c24 0 25 2 25 75 l0 75 30 0 30 0 0
-75 c0 -73 1 -75 25 -75 l25 0 0 175 0 175 -25 0 c-24 0 -25 -2 -25 -75 l0
-75 -30 0 -30 0 0 110 0 110 -155 0 -155 0 0 -245z"/>
<path d="M350 480 c0 -18 7 -20 55 -20 l55 0 0 -205 0 -205 -110 0 -110 0 0
190 0 190 -24 0 c-19 0 -27 -8 -36 -35 -6 -19 -15 -35 -20 -35 -5 0 -14 16
-20 35 -9 27 -17 35 -36 35 l-24 0 0 -175 c0 -168 1 -175 20 -175 19 0 20 7
20 110 0 105 11 143 26 85 8 -32 18 -32 31 3 9 21 11 -3 12 -120 l1 -148 155
0 155 0 0 245 0 245 -75 0 c-68 0 -75 -2 -75 -20z"/>
</g>
</svg>
